<mxfile host="app.diagrams.net" agent="Mozilla/5.0 (Windows NT 10.0; Win64; x64) AppleWebKit/537.36 (KHTML, like Gecko) Chrome/114.0.0.0 YaBrowser/23.7.1.1266 (corp) Yowser/2.5 Safari/537.36" version="28.2.7">
  <diagram name="Страница — 1" id="46_YjJLD5ii6b2-Gz8mP">
    <mxGraphModel dx="1378" dy="796" grid="1" gridSize="10" guides="1" tooltips="1" connect="1" arrows="1" fold="1" page="1" pageScale="1" pageWidth="827" pageHeight="1169" background="#FFCE9F" math="0" shadow="0">
      <root>
        <mxCell id="0" />
        <mxCell id="1" parent="0" />
        <mxCell id="6Sj-4vG3KvdTilen-gsD-1" value="" style="rounded=1;whiteSpace=wrap;html=1;fillColor=#404040;strokeColor=#404040;" parent="1" vertex="1">
          <mxGeometry x="300" y="280" width="240" height="340" as="geometry" />
        </mxCell>
        <mxCell id="6Sj-4vG3KvdTilen-gsD-2" value="Регистрация" style="rounded=1;whiteSpace=wrap;html=1;fontColor=#050505;strokeColor=#404040;fillColor=#FFFFFF;fontStyle=0;fontSize=15;" parent="1" vertex="1">
          <mxGeometry x="330" y="480" width="180" height="30" as="geometry" />
        </mxCell>
        <mxCell id="6Sj-4vG3KvdTilen-gsD-5" value="" style="rounded=1;whiteSpace=wrap;html=1;strokeColor=#F7FBFF;fillColor=#404040;" parent="1" vertex="1">
          <mxGeometry x="330" y="390" width="180" height="30" as="geometry" />
        </mxCell>
        <mxCell id="6Sj-4vG3KvdTilen-gsD-6" value="&amp;nbsp;Введите&lt;br&gt;&amp;nbsp;электронную почту" style="text;html=1;whiteSpace=wrap;strokeColor=none;fillColor=none;align=left;verticalAlign=middle;rounded=0;fontColor=#FFFFFF;fontSize=18;fontStyle=1" parent="1" vertex="1">
          <mxGeometry x="330" y="340" width="190" height="30" as="geometry" />
        </mxCell>
        <mxCell id="6Sj-4vG3KvdTilen-gsD-7" value="Jotline" style="text;html=1;whiteSpace=wrap;strokeColor=none;fillColor=none;align=center;verticalAlign=middle;rounded=0;fontColor=#FFFFFF;fontSize=18;fontStyle=1" parent="1" vertex="1">
          <mxGeometry x="300" y="290" width="240" height="30" as="geometry" />
        </mxCell>
        <mxCell id="6Sj-4vG3KvdTilen-gsD-9" value="Войти" style="rounded=1;whiteSpace=wrap;html=1;fontSize=15;" parent="1" vertex="1">
          <mxGeometry x="330" y="440" width="180" height="30" as="geometry" />
        </mxCell>
        <mxCell id="6Sj-4vG3KvdTilen-gsD-10" value="QR-код" style="rounded=1;whiteSpace=wrap;html=1;strokeColor=#F7FBFF;fillColor=#404040;fontColor=#FFFFFF;fontStyle=1;fontSize=14;" parent="1" vertex="1">
          <mxGeometry x="330" y="530" width="80" height="60" as="geometry" />
        </mxCell>
        <mxCell id="6Sj-4vG3KvdTilen-gsD-11" value="Ещё" style="rounded=1;whiteSpace=wrap;html=1;strokeColor=#F7FBFF;fillColor=#404040;fontColor=#FFFFFF;fontSize=14;fontStyle=1" parent="1" vertex="1">
          <mxGeometry x="430" y="530" width="80" height="60" as="geometry" />
        </mxCell>
      </root>
    </mxGraphModel>
  </diagram>
</mxfile>
